<mxfile host="app.diagrams.net" modified="2024-03-20T06:35:28.170Z" agent="Mozilla/5.0 (X11; Ubuntu; Linux x86_64; rv:123.0) Gecko/20100101 Firefox/123.0" etag="OdtX-CNKgOV2S1nvCKEE" version="23.1.8" type="github">
  <diagram name="Page-1" id="AX6o9_a5dBACwxXLO6Sp">
    <mxGraphModel dx="989" dy="507" grid="1" gridSize="10" guides="1" tooltips="1" connect="1" arrows="1" fold="1" page="1" pageScale="1" pageWidth="827" pageHeight="1169" math="0" shadow="0">
      <root>
        <mxCell id="0" />
        <mxCell id="1" parent="0" />
        <mxCell id="OzSZrfUJcuVy3BLv5Opo-3" value="" style="rounded=0;whiteSpace=wrap;html=1;fillColor=#d5e8d4;strokeColor=#82b366;" vertex="1" parent="1">
          <mxGeometry x="160" width="480" height="750" as="geometry" />
        </mxCell>
        <mxCell id="OzSZrfUJcuVy3BLv5Opo-4" value="Quai antique" style="text;strokeColor=none;fillColor=none;html=1;fontSize=24;fontStyle=1;verticalAlign=middle;align=center;" vertex="1" parent="1">
          <mxGeometry x="440" y="70" width="170" height="60" as="geometry" />
        </mxCell>
        <mxCell id="OzSZrfUJcuVy3BLv5Opo-5" value="Insciption" style="ellipse;whiteSpace=wrap;html=1;" vertex="1" parent="1">
          <mxGeometry x="190" y="610" width="120" height="80" as="geometry" />
        </mxCell>
        <mxCell id="OzSZrfUJcuVy3BLv5Opo-9" value="Administrateur" style="shape=umlActor;verticalLabelPosition=bottom;verticalAlign=top;html=1;outlineConnect=0;" vertex="1" parent="1">
          <mxGeometry x="40" y="160" width="30" height="60" as="geometry" />
        </mxCell>
        <mxCell id="OzSZrfUJcuVy3BLv5Opo-21" style="rounded=0;orthogonalLoop=1;jettySize=auto;html=1;endArrow=none;endFill=0;" edge="1" parent="1" source="OzSZrfUJcuVy3BLv5Opo-11" target="OzSZrfUJcuVy3BLv5Opo-17">
          <mxGeometry relative="1" as="geometry" />
        </mxCell>
        <mxCell id="OzSZrfUJcuVy3BLv5Opo-11" value="Client" style="shape=umlActor;verticalLabelPosition=bottom;verticalAlign=top;html=1;outlineConnect=0;" vertex="1" parent="1">
          <mxGeometry x="40" y="370" width="30" height="60" as="geometry" />
        </mxCell>
        <mxCell id="OzSZrfUJcuVy3BLv5Opo-16" style="rounded=0;orthogonalLoop=1;jettySize=auto;html=1;entryX=0;entryY=0.5;entryDx=0;entryDy=0;endArrow=none;endFill=0;" edge="1" parent="1" source="OzSZrfUJcuVy3BLv5Opo-12" target="OzSZrfUJcuVy3BLv5Opo-5">
          <mxGeometry relative="1" as="geometry" />
        </mxCell>
        <mxCell id="OzSZrfUJcuVy3BLv5Opo-12" value="Visiteur" style="shape=umlActor;verticalLabelPosition=bottom;verticalAlign=top;html=1;outlineConnect=0;" vertex="1" parent="1">
          <mxGeometry x="40" y="620" width="30" height="60" as="geometry" />
        </mxCell>
        <mxCell id="OzSZrfUJcuVy3BLv5Opo-17" value="RÃ©sever une table" style="ellipse;whiteSpace=wrap;html=1;" vertex="1" parent="1">
          <mxGeometry x="180" y="390" width="120" height="80" as="geometry" />
        </mxCell>
        <mxCell id="OzSZrfUJcuVy3BLv5Opo-22" style="rounded=0;orthogonalLoop=1;jettySize=auto;html=1;entryX=1;entryY=0.3333333333333333;entryDx=0;entryDy=0;entryPerimeter=0;endArrow=none;endFill=0;" edge="1" parent="1" source="OzSZrfUJcuVy3BLv5Opo-17" target="OzSZrfUJcuVy3BLv5Opo-12">
          <mxGeometry relative="1" as="geometry" />
        </mxCell>
        <mxCell id="OzSZrfUJcuVy3BLv5Opo-26" style="rounded=0;orthogonalLoop=1;jettySize=auto;html=1;dashed=1;" edge="1" parent="1" source="OzSZrfUJcuVy3BLv5Opo-23" target="OzSZrfUJcuVy3BLv5Opo-17">
          <mxGeometry relative="1" as="geometry" />
        </mxCell>
        <mxCell id="OzSZrfUJcuVy3BLv5Opo-27" value="Text" style="edgeLabel;html=1;align=center;verticalAlign=middle;resizable=0;points=[];" vertex="1" connectable="0" parent="OzSZrfUJcuVy3BLv5Opo-26">
          <mxGeometry x="0.0352" y="-2" relative="1" as="geometry">
            <mxPoint as="offset" />
          </mxGeometry>
        </mxCell>
        <mxCell id="OzSZrfUJcuVy3BLv5Opo-30" value="&amp;lt;&amp;lt;include&amp;gt;&amp;gt;" style="edgeLabel;html=1;align=center;verticalAlign=middle;resizable=0;points=[];" vertex="1" connectable="0" parent="OzSZrfUJcuVy3BLv5Opo-26">
          <mxGeometry x="0.0352" y="-1" relative="1" as="geometry">
            <mxPoint as="offset" />
          </mxGeometry>
        </mxCell>
        <mxCell id="OzSZrfUJcuVy3BLv5Opo-23" value="Connexion" style="ellipse;whiteSpace=wrap;html=1;" vertex="1" parent="1">
          <mxGeometry x="414" y="390" width="120" height="80" as="geometry" />
        </mxCell>
      </root>
    </mxGraphModel>
  </diagram>
</mxfile>
